<?xml version="1.0" encoding="UTF-8"?><svg id="Calque_1" xmlns="http://www.w3.org/2000/svg" viewBox="0 0 1256.5 891.5"><defs><style>.cls-1{fill:#007ffb;}.cls-2{fill:#222;}.cls-3{stroke-width:29px;}.cls-3,.cls-4,.cls-5,.cls-6{fill:none;stroke:#222;stroke-miterlimit:10;}.cls-4{stroke-width:37px;}.cls-5{stroke-width:35px;}.cls-6{stroke-width:36px;}</style></defs><ellipse class="cls-6" cx="1190.59" cy="517.32" rx="46.16" ry="26.76" transform="translate(423.11 1564.27) rotate(-77.24)"/><ellipse class="cls-5" cx="107.58" cy="577.97" rx="62.53" ry="38.22" transform="translate(-480.19 590.08) rotate(-80.64)"/><ellipse class="cls-6" cx="493.71" cy="831.81" rx="51.79" ry="37.53"/><path class="cls-4" d="M139.62,246.64c-.64-7.47-3.21-14.65-8.72-19.95-4.73-4.55-11.02-7.51-17.43-8.77-7.64-1.51-16.2-1.82-23.73,.41-6.18,1.84-10.71,5.46-14.62,9.94-3.77,3.94-6.33,12.95-6.15,13.66-3.75,13.91,2.91,28.46,14.13,36.89,5.29,3.98,11.73,6.65,18.25,7.81,7.67,1.37,15.95,1.8,23.13-1.74,7.08-3.49,10.27-10.61,12.33-17.81,1.87-6.53,3.4-13.62,2.82-20.45Z"/><rect class="cls-2" x="333.3" y="146.98" width="108.63" height="146.16"/><rect class="cls-2" x="269.94" y="377.68" width="565.57" height="206.38"/><g><path class="cls-2" d="M42.78,149.92c2.58,0,5.17,.29,7.61,.78,4.15,.82,8.22,2.74,11.29,5.68,3.57,3.43,5.23,8.08,5.65,12.92,.38,4.42-.61,9.01-1.82,13.24-1.33,4.66-3.4,9.28-7.99,11.54-2.65,1.3-5.53,1.78-8.44,1.78-2.2,0-4.41-.27-6.55-.65-4.22-.75-8.39-2.48-11.82-5.06-7.27-5.46-11.59-14.89-9.16-23.9-.11-.46,1.54-6.29,3.99-8.85,2.54-2.9,5.47-5.25,9.47-6.44,2.47-.73,5.11-1.04,7.76-1.04m0-14.88c-4.26,0-8.29,.56-12,1.66-6.27,1.86-11.65,5.43-16.43,10.91-2.64,3.01-6.02,9.01-7.19,14.9-3.78,14.25,2.09,30.12,14.62,39.54,5.23,3.93,11.5,6.63,18.15,7.81,3.32,.59,6.32,.88,9.16,.88,5.51,0,10.56-1.11,15.01-3.31,11.37-5.6,14.64-17.03,15.72-20.79,1.41-4.93,2.95-11.51,2.34-18.61-.77-8.98-4.28-16.72-10.16-22.37-4.94-4.76-11.6-8.15-18.73-9.56-3.56-.7-7.09-1.06-10.49-1.06h0Z"/><path class="cls-1" d="M67.33,169.3c-.42-4.84-2.08-9.49-5.65-12.92-3.06-2.95-7.14-4.87-11.29-5.68-4.95-.98-10.49-1.18-15.37,.27-4,1.19-6.94,3.54-9.47,6.44-2.44,2.56-4.1,8.39-3.99,8.85-2.43,9.01,1.89,18.44,9.16,23.9,3.43,2.58,7.6,4.31,11.82,5.06,4.97,.89,10.33,1.16,14.98-1.13,4.59-2.26,6.65-6.87,7.99-11.54,1.21-4.23,2.2-8.82,1.82-13.24Z"/></g><g><g><path class="cls-2" d="M1237.04,833.58c-.42-4.84-2.08-9.49-5.65-12.92-3.06-2.95-7.14-4.87-11.29-5.68-4.95-.98-10.49-1.18-15.37,.27-4,1.19-6.94,3.54-9.47,6.44-2.44,2.56-4.1,8.39-3.99,8.85-2.43,9.01,1.89,18.44,9.16,23.9,3.43,2.58,7.6,4.31,11.82,5.06,4.97,.89,10.33,1.16,14.98-1.13,4.59-2.26,6.65-6.87,7.99-11.54,1.21-4.23,2.2-8.82,1.82-13.24Z"/><path class="cls-2" d="M1212.49,814.2c2.58,0,5.17,.29,7.61,.78,4.15,.82,8.23,2.74,11.29,5.68,3.57,3.43,5.23,8.08,5.65,12.92,.38,4.42-.61,9.01-1.82,13.24-1.33,4.66-3.4,9.28-7.99,11.54-2.65,1.3-5.53,1.78-8.44,1.78-2.2,0-4.41-.27-6.55-.65-4.22-.75-8.39-2.48-11.82-5.06-7.27-5.46-11.59-14.89-9.16-23.9-.11-.46,1.54-6.29,3.99-8.85,2.54-2.9,5.47-5.25,9.47-6.44,2.47-.73,5.11-1.04,7.76-1.04m0-14.88c-4.26,0-8.29,.56-12,1.66-6.27,1.86-11.65,5.43-16.43,10.91-2.64,3.01-6.02,9.01-7.19,14.9-3.78,14.25,2.09,30.12,14.62,39.54,5.23,3.93,11.5,6.63,18.15,7.81,3.32,.59,6.32,.88,9.16,.88,5.51,0,10.56-1.11,15.01-3.31,11.37-5.6,14.64-17.03,15.72-20.79,1.41-4.93,2.95-11.51,2.34-18.61-.77-8.98-4.28-16.72-10.16-22.37-4.94-4.76-11.6-8.15-18.73-9.56-3.56-.7-7.09-1.06-10.49-1.06h0Z"/></g><path class="cls-1" d="M1237.04,833.58c-.42-4.84-2.08-9.49-5.65-12.92-3.06-2.95-7.14-4.87-11.29-5.68-4.95-.98-10.49-1.18-15.37,.27-4,1.19-6.94,3.54-9.47,6.44-2.44,2.56-4.1,8.39-3.99,8.85-2.43,9.01,1.89,18.44,9.16,23.9,3.43,2.58,7.6,4.31,11.82,5.06,4.97,.89,10.33,1.16,14.98-1.13,4.59-2.26,6.65-6.87,7.99-11.54,1.21-4.23,2.2-8.82,1.82-13.24Z"/></g><path class="cls-2" d="M69.84,737.92c19.17,49.04,58.03,91.79,106.92,112.3,12.07,5.06,24.6,8.44,37.62,9.89,3.33,.37,6.2-3.11,6.2-6.2,0-3.66-2.86-5.83-6.2-6.2-21.09-2.34-42.06-11.63-60-23.49-20.38-13.47-38.17-31.18-52.04-51.28-8.24-11.94-15.26-24.8-20.55-38.32-1.22-3.12-4.16-5.28-7.63-4.33-2.97,.82-5.56,4.49-4.33,7.63h0Z"/><path class="cls-2" d="M67.43,721.16c3.92,0,7.68-3.45,7.5-7.5s-3.3-7.5-7.5-7.5c-3.92,0-7.68,3.45-7.5,7.5s3.3,7.5,7.5,7.5h0Z"/><g><g><path class="cls-2" d="M1196.59,330.52c-1.62-40.25-18.71-80.81-52.34-104.37-17.29-12.11-38.91-17.16-59.49-19.99-20.4-2.8-42.11-4.25-62.33,.71-20.43,5.02-39.99,19.7-45.94,40.65-3.68,12.96-3,26.23,7.8,35.41,4.82,4.1,10.63,6.81,16.76,8.48-.5,.21-.96,.49-1.44,.74-19.85-3.69-31.92-23.56-30.23-44.75,2.58-32.23,33.05-50.9,35.73-83.06,1.33-15.97-.57-28.85,5.85-44.08,2.58-6.12,8.49-24.44,15.16-26.64,.5-.16,1.11-.16,1.8-.05-.12,.41-.31,.78-.41,1.2-.78,3.28-1.76,6.49-2.85,9.66-.8,.94-1.58,1.93-2.38,3.01-.9,1.22-2.26,4.82-2.73,6.28-.6,1.84-.82,3.25-.9,4.6-1.13,2.56-2.16,5.17-3.05,7.8-1.79,5.33-2.83,11.05-3.29,16.8-3.75,11.74-3.98,23.62,2.41,34.07,8.03,13.13,23,16.41,37.08,18.42,16.05,2.29,33.36,3.54,49.1-1.35,31.7-9.86,40.84-42.19,39.16-72.15-1.79-32.05-14.23-61.4-42.64-78.39-50.87-30.42-116.84-11.39-159.53,24.15-46.7,38.89-68.66,101.24-71.95,160.45-3.71,66.66,20.26,136.43,73.29,179.06,3.61,2.9,7.63,5.05,11.79,6.21,32.31,19.75,80.56,28.86,96.76-12.97,7.37-19.02,9.59-39.6,12.01-59.71,1.44-11.98,3.58-24.78,7.35-35.11,.81,1.26,1.6,2.52,1.86,3.11,2.98,6.8,4.37,14.71,4.5,22.09,.35,19.52-9.94,34.98-15.56,53.05-7.35,23.62-.44,48.33,26.56,52.71,20.64,3.35,41.95,5.48,61.73-2.82,38.45-16.11,51.88-64.95,50.34-103.22Z"/><path class="cls-2" d="M1216.42,329.72c-2.01-49.77-24.73-94.57-60.78-119.82-7.04-4.93-14.58-8.83-22.18-11.93,18.69-16.83,28.28-43.91,26.42-77.19-2.35-42.06-20.91-75.56-52.27-94.31-19.96-11.94-42.55-17.99-67.14-17.99-39.72,0-81.73,16.01-115.27,43.93-46.22,38.49-75.04,102.12-79.07,174.6-4.36,78.38,25.8,151.51,80.67,195.62,4.98,4,10.36,7.01,16.03,8.97,19.78,11.62,41.84,18.25,60.89,18.25,16.6,0,31.11-4.93,42.46-14.07,8.15,10.94,20.21,17.94,35.15,20.37,9.81,1.59,21.45,3.22,33.43,3.22,14.59,0,27.39-2.39,39.14-7.32,48.94-20.51,64.25-78.71,62.49-122.31Zm-70.16,104.02c-10.19,4.27-20.78,5.78-31.48,5.78-10.08,0-20.24-1.34-30.26-2.96-27.01-4.38-33.92-29.09-26.56-52.71,5.63-18.07,15.92-33.53,15.56-53.05-.14-7.39-1.52-15.3-4.5-22.09-.26-.59-1.05-1.85-1.86-3.11-3.77,10.33-5.9,23.13-7.35,35.11-2.43,20.11-4.64,40.69-12.01,59.71-8.36,21.58-25.24,29.6-44.07,29.6-17.67,0-37.05-7.07-52.7-16.63-4.16-1.16-8.18-3.31-11.79-6.21-53.03-42.63-77-112.39-73.29-179.06,3.29-59.21,25.25-121.57,71.95-160.45,27.84-23.18,65.57-39.34,102.57-39.33,19.73,0,39.26,4.6,56.96,15.18,28.41,16.99,40.85,46.34,42.64,78.39,1.67,29.96-7.47,62.29-39.16,72.15-7.93,2.46-16.25,3.37-24.61,3.37s-16.52-.88-24.49-2.02c-14.08-2.01-29.05-5.29-37.08-18.42-1.62-2.65-2.82-5.4-3.63-8.21-1.44,3.04-4.48,4.67-7.58,4.89-6.93,26.74-31.8,44.76-34.12,73.75-1.7,21.19,10.38,41.07,30.23,44.75,.48-.25,.94-.52,1.44-.74-6.12-1.67-11.94-4.38-16.76-8.48-10.8-9.17-11.48-22.45-7.8-35.41,5.95-20.95,25.5-35.63,45.94-40.65,9.64-2.37,19.61-3.27,29.62-3.27,11,0,22.04,1.1,32.71,2.56,20.58,2.83,42.21,7.87,59.49,19.99,33.63,23.56,50.71,64.12,52.34,104.37,1.54,38.26-11.89,87.11-50.34,103.22Z"/></g><path class="cls-1" d="M1196.59,330.52c-1.62-40.25-18.71-80.81-52.34-104.37-17.29-12.11-38.91-17.16-59.49-19.99-20.4-2.8-42.11-4.25-62.33,.71-20.43,5.02-39.99,19.7-45.94,40.65-3.68,12.96-3,26.23,7.8,35.41,4.82,4.1,10.63,6.81,16.76,8.48-.5,.21-.96,.49-1.44,.74-19.85-3.69-31.92-23.56-30.23-44.75,2.58-32.23,33.05-50.9,35.73-83.06,1.33-15.97-.55-3.7,9.62,12.64,8.13,13.07,23,16.41,37.08,18.42,16.05,2.29,33.36,3.54,49.1-1.35,31.7-9.86,40.84-42.19,39.16-72.15-1.79-32.05-14.23-61.4-42.64-78.39-50.87-30.42-116.84-11.39-159.53,24.15-46.7,38.89-68.66,101.24-71.95,160.45-3.71,66.66,20.26,136.43,73.29,179.06,3.61,2.9,7.63,5.05,11.79,6.21,32.31,19.75,80.56,28.86,96.76-12.97,7.37-19.02,10.27,16.42,12.7-3.69,1.44-11.98-3.77,10.33,0,0,.81,1.26,6.15-13.04,5.19-5.71-2.88,22.04-2.1-25.23-7.73-7.17-7.35,23.62-.44,48.33,26.56,52.71,20.64,3.35,41.95,5.48,61.73-2.82,38.45-16.11,51.88-64.95,50.34-103.22Z"/></g><g><g><path class="cls-2" d="M927.41,314.73c-.62-1.85-1.43-3.6-2.35-5.29-5.98-19.92-16.42-38.45-30.67-53.91-12.32-13.37-28.55-24.99-46.89-27.63-3.01-.43-6.05-.57-9.09-.79-.8-.24-1.57-.58-2.38-.79-13.07-3.41-26.21-1.87-39.28,.42-3.21,.56-6.2,1.19-9.11,1.66-.46,.07-.93,.09-1.39,.18,4.53-5,11.41-4.65,18.07-5.55,11.06-1.5,20.89-4.42,30.99-9.28,18.26-8.78,31.95-25.16,40.42-43.51,24.51-53.11-15.9-111.02-35.39-124.47-17.15-11.84-65.66-36.02-128.42-11.02-19.06,7.59-34.42,22.26-49.14,36.3-16.35,15.59-28.04,33.97-38.44,54.14-29.17,56.57-30.24,156.37-29.13,159.2,.43,15.12,2.4,30.21,5.18,45.13,4.09,22.01,9.61,44.58,21.27,63.97,21.79,36.25,69.22,60.12,108.49,35.35,18.44-11.63,31.08-32.17,29.69-54.35-1.43-22.93-14.95-44.17-20.74-66.24-3.17-12.09-7.08-26.64-1.28-37.09h0c.96,2.38,2.44,4.65,3.46,7.04,4.69,10.92,8.18,22.52,12.22,33.7,8.18,22.61,16.26,45.25,24.53,67.82,7.87,21.46,17.44,40.35,37.34,52.93,36.37,22.99,87.55,9.75,107.79-28.45,1.68-3.16,3.08-6.41,4.33-9.7,3.95-9.3,5.95-17.95,6.77-28.18,1.37-17.15-1.38-35.33-6.85-51.59Zm-172.87-219.83c.25-.17,.45-.3,.77-.52,1.01-.63,2.07-1.17,3.13-1.72-.26,.43,3.22-.34,4.14-.78,.1,0,.2,0,.31-.01,.15,.03,.24,.06,.41,.1-.01,.06-.02,.09-.03,.16-.4,1.66-.88,3.3-1.43,4.92-.94,2.88-2.1,5.68-3.25,8.47-10.57,25.73-16.58,52.27-18.53,80.04-.05,.66,.09,1.29,.11,1.95-.54-.85-1.12-1.74-1.58-2.46-.33-.95-1.41-3.57-1.59-4.17-1-3.24-1.81-6.54-2.49-9.86-.1-.48-.66-3.98-.83-4.73-.64-5.67-.83-11.41-.62-17.1,.11-3.08,.35-6.18,.72-9.25,.22-1.03,.76-4.14,.88-4.71,1.25-6.01,3.06-11.81,5.07-17.61,.32-.81,.54-1.37,.7-1.78,.63-1.37,1.27-2.74,1.95-4.09,1.13-2.24,2.32-4.44,3.62-6.59,.48-.8,4.72-6.36,3.95-5.68,.89-.99,1.78-1.97,2.73-2.9,1.1-.94,1.7-1.47,1.86-1.65Zm8.92-3.67s0-.02,0-.02c.04-.17,.08-.31,.13-.62,.33-1.53,.27-1.24-.12,.64Z"/><path class="cls-2" d="M766.76,23.85c35.52,0,61.87,13.84,73.58,21.93,19.48,13.45,59.9,71.36,35.39,124.47-8.47,18.35-22.16,34.73-40.42,43.51-10.1,4.86-19.93,7.77-30.99,9.28-6.66,.91-13.54,.55-18.07,5.55,.46-.1,.93-.11,1.39-.18,2.91-.46,5.9-1.1,9.11-1.66,7.6-1.33,15.22-2.41,22.84-2.41,5.49,0,10.98,.56,16.45,1.99,.81,.21,1.58,.55,2.38,.79,3.04,.21,6.08,.35,9.09,.79,18.34,2.65,34.57,14.26,46.89,27.63,14.25,15.46,24.69,33.99,30.67,53.91,.92,1.68,1.73,3.44,2.35,5.29,5.47,16.27,8.22,34.44,6.85,51.6-.82,10.23-2.82,18.89-6.77,28.18-1.25,3.29-2.66,6.54-4.33,9.7-13.47,25.42-40.62,39.78-68.01,39.78-13.77,0-27.61-3.64-39.78-11.33-19.9-12.58-29.47-31.47-37.34-52.93-8.27-22.57-16.35-45.21-24.53-67.82-4.04-11.18-7.53-22.78-12.22-33.7-1.03-2.39-2.5-4.66-3.46-7.03h0c-5.79,10.43-1.89,24.98,1.28,37.08,5.79,22.08,19.31,43.32,20.74,66.24,1.38,22.18-11.26,42.73-29.69,54.35-11.19,7.06-23.04,10.16-34.77,10.16-29.44,0-58.14-19.59-73.72-45.52-11.65-19.39-17.17-41.96-21.27-63.97-2.77-14.92-4.74-30.01-5.18-45.13-1.1-2.83-.04-102.63,29.13-159.2,10.4-20.17,22.09-38.54,38.44-54.14,14.72-14.04,30.08-28.71,49.14-36.3,19.9-7.92,38.35-10.9,54.84-10.9m-3.3,67.37c.23-1.07,.34-1.62,.34-1.62,0,0-.07,.32-.21,.98-.05,.3-.09,.45-.13,.62,0,0,0,.02,0,.02m-4.76,1.56c-.21,0-.31-.04-.26-.13-1.06,.55-2.12,1.08-3.13,1.72-.32,.22-.52,.35-.77,.52-.16,.18-.76,.72-1.86,1.65-.95,.93-1.85,1.91-2.73,2.9,.04-.04,.07-.06,.08-.06,.22,0-3.58,4.99-4.03,5.74-1.29,2.15-2.49,4.35-3.62,6.59-.68,1.35-1.32,2.71-1.95,4.09-.16,.41-.38,.97-.7,1.78-2,5.8-3.82,11.6-5.07,17.61-.12,.57-.66,3.69-.88,4.71-.37,3.07-.61,6.17-.72,9.25-.2,5.69-.02,11.44,.62,17.1,.17,.75,.74,4.25,.83,4.73,.68,3.32,1.49,6.62,2.49,9.86,.19,.6,1.26,3.23,1.59,4.17,.46,.72,1.03,1.61,1.58,2.46-.02-.65-.16-1.29-.11-1.95,1.94-27.77,7.96-54.31,18.53-80.04,1.15-2.8,2.31-5.6,3.25-8.47,.55-1.62,1.02-3.26,1.43-4.92,.02-.07,.02-.09,.03-.16-.17-.04-.26-.06-.41-.1-.11,0-.21,0-.31,.01-.74,.35-3.08,.91-3.88,.91m8.06-88.77h0c-20.74,0-41.67,4.14-62.18,12.31-22.6,9-40.03,25.62-55.41,40.29-16.07,15.33-29.14,33.65-42.47,59.48-16.63,32.25-24.4,75.74-27.99,106.55-2.12,18.15-2.99,33.34-3.35,42.88-.43,11.51-.33,17.34,.05,20.78,.49,14.41,2.28,29.75,5.46,46.84,4.13,22.21,10.18,47.96,23.77,70.56,20.13,33.49,55.75,55.13,90.73,55.13,16.18,0,31.44-4.45,45.35-13.22,13.25-8.36,23.63-19.75,30.35-32.7,7.61,13.76,17.97,26.55,33.7,36.5,14.9,9.42,32.33,14.4,50.38,14.4,36.31,0,69.09-19.29,85.54-50.33,1.88-3.55,3.59-7.34,5.21-11.59,4.62-10.97,7.13-21.48,8.14-34.01,1.53-19.15-1.18-39.72-7.83-59.5-.73-2.17-1.63-4.32-2.72-6.51-6.96-22.19-18.87-42.84-34.52-59.81-9.11-9.89-22.54-21.62-39.54-28.57,9.78-9.59,18.07-21.44,24.3-34.95,16.43-35.6,8.58-70.24-.89-93.04-11.12-26.75-28.72-47.44-41.24-56.08-11.08-7.65-41.54-25.44-84.85-25.44h0Z"/></g><path class="cls-1" d="M927.41,314.73c-.62-1.85-1.43-3.6-2.35-5.29-5.98-19.92-16.42-38.45-30.67-53.91-12.32-13.37-28.55-24.99-46.89-27.63-3.01-.43-6.05-.57-9.09-.79-.8-.24-28.59-2.66-41.66-.37-3.21,.56-6.2,1.19-9.11,1.66-.46,.07-1.82,.36-1.39,.18,7.92-3.15,10.71-4,18.07-5.55,10.92-2.31,20.89-4.42,30.99-9.28,18.26-8.78,31.95-25.16,40.42-43.51,24.51-53.11-15.9-111.02-35.39-124.47-17.15-11.84-65.66-36.02-128.42-11.02-19.06,7.59-34.42,22.26-49.14,36.3-16.35,15.59-28.04,33.97-38.44,54.14-29.17,56.57-30.24,156.37-29.13,159.2,.43,15.12,2.4,30.21,5.18,45.13,4.09,22.01,9.61,44.58,21.27,63.97,21.79,36.25,69.22,60.12,108.49,35.35,18.44-11.63,31.08-32.17,29.69-54.35-1.43-22.93-14.95-44.17-20.74-66.24-3.17-12.09-7.08-26.64-1.28-37.09h0c.96,2.38,2.44,4.65,3.46,7.04,4.69,10.92,8.18,22.52,12.22,33.7,8.18,22.61,16.26,45.25,24.53,67.82,7.87,21.46,17.44,40.35,37.34,52.93,36.37,22.99,87.55,9.75,107.79-28.45,1.68-3.16,3.08-6.41,4.33-9.7,3.95-9.3,5.95-17.95,6.77-28.18,1.37-17.15-1.38-35.33-6.85-51.59Zm-172.87-219.83c.25-.17,.45-.3,.77-.52,1.01-.63,2.07-1.17,3.13-1.72-.26,.43,3.22-.34,4.14-.78,.1,0,.2,0,.31-.01,.15,.03,.24,.06,.41,.1-.01,.06-.02,.09-.03,.16-.4,1.66-.88,3.3-1.43,4.92-.94,2.88-2.1,5.68-3.25,8.47-10.57,25.73-16.58,52.27-18.53,80.04-.05,.66,.09,1.29,.11,1.95-.54-.85-1.12-1.74-1.58-2.46-.33-.95-1.41-3.57-1.59-4.17-1-3.24-1.81-6.54-2.49-9.86-.1-.48-.66-3.98-.83-4.73-.64-5.67-.83-11.41-.62-17.1,.11-3.08,.35-6.18,.72-9.25,.22-1.03,.76-4.14,.88-4.71,1.25-6.01,3.06-11.81,5.07-17.61,.32-.81,.54-1.37,.7-1.78,.63-1.37,1.27-2.74,1.95-4.09,1.13-2.24,2.32-4.44,3.62-6.59,.48-.8,4.72-6.36,3.95-5.68,.89-.99,1.78-1.97,2.73-2.9,1.1-.94,1.7-1.47,1.86-1.65Zm8.92-3.67s0-.02,0-.02c.04-.17,.08-.31,.13-.62,.33-1.53,.27-1.24-.12,.64Z"/></g><g><g><g><path class="cls-2" d="M487.83,337.63c2.52-1.76,4.92-3.24,7.09-5.01,11.9-9.74,23-20.69,35.79-29.06,16.79-10.98,33.35-22.8,55.41-22.51,24.03,.31,52.3,22.52,57.92,45.98,5.07,21.16,4.79,41.77-.37,62.09-4.44,17.48-15.25,31.55-30.71,42.01-17.39,11.76-36.34,17.17-57.1,18.61-28.24,1.97-56.42,2.45-83.59-6.11-31.87-10.04-57.44-28.41-73.67-58.93-13.37-25.14-19.05-51.82-16.96-79.58,2.12-28.14,12.65-53.88,30.22-76.36,3.15-4.04,7.02-7.52,10.12-11.6,3.55-4.66,5.61-9.19,2.02-15.58-13.97-24.91-20.93-51.09-14.43-80.03,5.91-26.32,20.65-46.11,42.3-61.1,30.83-21.34,65.71-29.11,102.6-27.67,28.86,1.12,54.49,10.65,72.52,34.73,14.49,15.81,18.56,49.42,19.56,64.94,1.56,24.13-9.24,42.37-30.82,55.06-22.58,13.28-46.29,16.79-70.04,8.07-13.67-5.02-25.53-15.67-37.24-24.99-7.03-5.6-12.09-13.62-18.29-20.32-1.31-1.41-3.77-3.52-5.66-2.63-2.11,.99-2.43,5.05-1.68,6.63,1.9,3.99,4.86,7.51,7.56,11.1,12.33,16.33,29.07,27.39,46.1,37.99,6.71,4.17,14.76,6.45,20.85,11.29,11.41,9.09,13.25,29.33,6.61,44.51-6.62,15.15-19.6,23.32-31.95,32.55-15.25,11.4-30.24,23.17-45.23,34.92-4.71,3.69-2.9,7.25,1.08,11.02Z"/><path class="cls-2" d="M546.02,32.61c2.8,0,5.62,.06,8.44,.17,28.86,1.12,54.49,10.65,72.52,34.73,14.49,15.81,18.56,49.42,19.56,64.94,1.56,24.13-9.24,42.37-30.82,55.06-14.22,8.36-28.88,12.85-43.72,12.85-8.73,0-17.52-1.55-26.32-4.78-13.67-5.02-25.53-15.67-37.24-24.99-7.03-5.6-12.09-13.62-18.29-20.32-1.09-1.18-2.98-2.84-4.68-2.84-.34,0-.67,.07-.98,.21-2.11,.99-2.43,5.05-1.68,6.63,1.9,3.99,4.86,7.51,7.56,11.1,12.33,16.33,29.07,27.39,46.1,37.99,6.71,4.17,14.76,6.45,20.85,11.29,11.41,9.09,13.24,29.33,6.61,44.51-6.62,15.15-19.6,23.32-31.95,32.55-15.25,11.4-30.24,23.17-45.23,34.92-4.71,3.69-2.9,7.25,1.08,11.02,2.52-1.76,4.92-3.24,7.09-5.01,11.9-9.74,23-20.69,35.79-29.06,16.59-10.85,32.96-22.52,54.63-22.52,.26,0,.52,0,.78,0,24.03,.31,52.3,22.52,57.92,45.98,5.07,21.16,4.79,41.77-.37,62.09-4.44,17.48-15.25,31.55-30.71,42.01-17.39,11.76-36.34,17.17-57.1,18.61-9.89,.69-19.77,1.2-29.61,1.2-18.25,0-36.33-1.74-53.99-7.31-31.87-10.04-57.44-28.41-73.67-58.93-13.37-25.14-19.05-51.82-16.96-79.58,2.12-28.14,12.65-53.88,30.22-76.36,3.15-4.04,7.02-7.52,10.12-11.6,3.55-4.66,5.61-9.19,2.02-15.58-13.97-24.91-20.93-51.09-14.43-80.03,5.91-26.32,20.65-46.11,42.3-61.1,28.47-19.71,60.39-27.84,94.15-27.84m0-19.84c-39.9,0-75.38,10.55-105.45,31.36-26.68,18.47-43.63,43.05-50.36,73.07-6.68,29.76-2.02,59.24,14.26,89.99-.7,.79-1.47,1.62-2.27,2.48-1.85,1.99-3.94,4.25-5.98,6.86-20.42,26.13-31.99,55.43-34.37,87.08-2.38,31.53,4.09,61.94,19.22,90.39,17.67,33.23,46.35,56.29,85.22,68.54,17.81,5.61,36.86,8.22,59.95,8.22,9.08,0,18.64-.38,30.99-1.24,25.78-1.8,47.64-8.98,66.84-21.97,19.92-13.48,33.34-32,38.82-53.56,6-23.64,6.15-47.73,.43-71.59-7.71-32.17-43.67-60.76-76.96-61.2-.35,0-.69,0-1.04,0s-.67,0-1,0c3.02-9.33,3.99-19.48,2.73-29.17-.58-4.44-1.62-8.67-3.07-12.61,14.08-1.8,28.09-6.76,41.79-14.82,28.55-16.79,42.58-42.19,40.56-73.44-1.28-19.86-6.11-55.95-24.03-76.29-20.08-26.36-49.37-40.46-87.08-41.93-3.09-.12-6.19-.18-9.22-.18h0Z"/></g><path class="cls-1" d="M530.7,303.56c16.79-10.98,33.35-22.8,55.41-22.51,24.03,.31,52.3,22.52,57.92,45.98,5.07,21.16,4.79,41.77-.37,62.09-4.44,17.48-15.25,31.55-30.71,42.01-17.39,11.76-36.34,17.17-57.1,18.61-28.24,1.97-56.42,2.45-83.59-6.11-31.87-10.04-57.44-28.41-73.67-58.93-13.37-25.14-19.05-51.82-16.96-79.58,2.12-28.14,12.65-53.88,30.22-76.36,3.15-4.04,7.02-7.52,10.12-11.6,3.55-4.66,5.61-9.19,2.02-15.58-13.97-24.91-20.93-51.09-14.43-80.03,5.91-26.32,20.65-46.11,42.3-61.1,30.83-21.34,65.71-29.11,102.6-27.67,28.86,1.12,54.49,10.65,72.52,34.73,13.85,14.2,18.56,49.42,19.56,64.94,1.56,24.13-9.24,42.37-30.82,55.06-22.58,13.28-46.29,16.79-70.04,8.07-13.67-5.02-26.24-2.83-9.21,7.77,6.71,4.17,14.76,6.45,20.85,11.29,11.41,9.09,13.25,29.33,6.61,44.51-6.62,15.15-46.02,52.79-33.23,44.42Z"/></g><path class="cls-2" d="M579.41,210.45c-34.7,.7-77.62-18.46-91.73-51.85-.52-1.04-.91-2.51-1.32-3.6-.9-2.37-1.36-4.92-1.87-7.37,2.9,4.16,5.72,8.13,8.88,11.79,22.48,25.9,54.82,38.52,86.04,51.03h0Z"/><path class="cls-2" d="M579.41,253.44c0,9.39-9.7,20.16-15.74,26.84-14.33,15-30.98,27.31-48.6,38.04-8.83,5.26-17.89,10.17-27.59,14,22-21.38,46.97-38.86,70.88-57.8,3.94-3.11,7.83-6.28,11.54-9.62,3.62-3.4,7.54-6.78,9.51-11.46h0Z"/></g><g><g><path class="cls-2" d="M411.82,253.71c-10.89-17.66-28.11-31.76-48.97-18.02-6.56,4.32-10.5,11.09-16.81,15.64-.31,.23-.76,.51-1.26,.82,.06-.14,.11-.32,.17-.46,3.64-8.78,10.44-16.29,16.37-23.52,13.21-16.12,24.37-31.94,31.09-51.86,9.78-28.99,10.12-71.12-8.66-98.12-3.79-7.41-9.11-14.06-15.74-19.4-13.59-10.95-30-16.93-46.81-21.07-21.37-5.26-43.04-7.2-64.72-6.31-11.15-.51-22.31-.26-33.46,.91-2.3,.24-4.55,.8-6.76,1.51-26.82,2.51-52.66,10.7-70.91,32.29-14.35,16.98-20.42,37.12-16.9,59.11,2.02,12.61,8.51,25.29,17.97,34.5,.49,1.18,.98,2.35,1.48,3.54,6.11,14.73,5.05,22.01-2.91,35.87-19.17,33.34-34.73,67.38-37.3,106.34-1.14,17.23,.92,34.16,5.67,50.25,.02,1.83,.17,3.68,.5,5.53,3.09,17.36,12.02,32.71,22.52,46.74,.55,.77,1.14,1.51,1.73,2.25,2.74,3.57,5.54,7.08,8.38,10.48,13.51,16.2,31.43,28.32,53.02,29.42,21.52,1.1,39.59-8.67,59.08-16.01,12.67-4.77,24.07-5.4,35.27-1.5,27,24.45,73.43,17.33,103.87,3.05,31.21-14.65,47.03-48.02,48.72-81.16,1.86-36.54-16.02-70.64-34.62-100.8Zm-168.38-62.26c-.17-.94-.49-1.98-.74-2.87,0-.11,0-.16-.01-.28-.05-1.2-.1-2.39-.11-3.59-.02-2.41,.09-4.81,.28-7.21,.07-.84,.49-4.47,.56-5.27,1.65-11.05,4.14-21.99,7.43-32.66,1.69-5.49,3.59-10.91,5.69-16.25,.36-.91,.72-1.81,1.09-2.71,.09-.2,.19-.4,.42-.91,1.28-2.81,2.58-5.62,3.96-8.38,2.35-4.72,4.88-9.38,7.61-13.9,3.75,.15,7.58,.26,11.29,.28h0c.36,.06,.73,.11,1.09,.2-.64,2.15-1.23,4.33-2,6.42-4.12,11.1-8.27,22.13-11.69,33.48-5.22,17.28-9.03,34.89-11.95,52.66-4.26-.81-8.69-.58-12.92,1.01Zm-.73-2.82c.23,1.14,.2,4.44,0,0h0Zm.37,2.57c.03-.08,.09,.09,.16,.35-.04,.01-.07,.04-.11,.05-.01-.14-.1-.28-.05-.4Zm28.29-96.55c.57-.71,.66-.68,0,0h0Zm14.84,4.52c.6,.35,1.14,.65,1.16,.64-.26,.13-.7-.21-1.16-.64Zm-.02-.32c.29,.07,.26,.07,0,0h0Zm-3.23-4.81c-.25-.45-.19-.41,0,0h0Zm-3.26,283.04c-1-.76-1.92-1.61-2.79-2.51h0c-.59-.98-1.12-2-1.63-3.02-1.71-5.46-3.46-10.89-5.07-16.39-3.57-12.17-7.15-24.34-10.72-36.51-3.56-12.13-6.72-24.45-10.58-36.48-.13-.73-.23-1.27-.32-1.7,1.08-.03,2.16-.06,3.2-.06,.12,0,.16,.01,.28,.02,.31,.09,.56,.16,.78,.23,.24,.26,.47,.52,.62,.67,.29,.46,.62,.89,.9,1.36,1.03,1.71,1.89,3.48,2.79,5.25,.06,.14,.08,.18,.14,.3,.36,.93,.72,1.85,1.06,2.79,2.09,5.65,4.02,11.35,5.98,17.05,8.01,23.36,15.31,46.94,22.06,70.69-1.86-.15-3.71-.44-5.57-.48-.39-.38-.67-.83-1.11-1.19Zm84.43-102.7c-.07-.03-.14-.06-.21-.08-1.69-2.92-1.55-2.77,.21,.08Z"/><path class="cls-2" d="M245.63,31.15c3.62,0,7.23,.08,10.85,.25,3.37-.14,6.74-.21,10.11-.21,18.3,0,36.56,2.08,54.61,6.52,16.82,4.14,33.22,10.12,46.81,21.07,6.63,5.34,11.95,11.99,15.74,19.4,18.77,27,18.43,69.13,8.66,98.12-6.72,19.92-17.88,35.74-31.09,51.86-5.93,7.24-12.74,14.74-16.37,23.52-.06,.14-.11,.32-.17,.46,.5-.31,.94-.59,1.26-.82,6.31-4.54,10.25-11.32,16.81-15.64,5.87-3.86,11.44-5.52,16.67-5.52,13.37,0,24.47,10.86,32.3,23.55,18.6,30.16,36.48,64.26,34.62,100.8-1.69,33.14-17.5,66.51-48.72,81.16-16.01,7.51-36.43,13.04-56.13,13.04-17.76,0-34.94-4.5-47.74-16.09-4.91-1.71-9.87-2.55-14.95-2.55-6.5,0-13.21,1.37-20.32,4.05-18.47,6.96-35.67,16.1-55.74,16.1-1.1,0-2.22-.03-3.34-.08-21.6-1.1-39.51-13.22-53.02-29.43-2.84-3.41-5.64-6.92-8.38-10.48-.59-.74-1.18-1.48-1.73-2.25-10.5-14.02-19.44-29.38-22.52-46.74-.33-1.85-.47-3.7-.5-5.53-4.75-16.09-6.8-33.02-5.67-50.25,2.58-38.96,18.13-72.99,37.3-106.34,7.97-13.86,9.02-21.14,2.91-35.87-.49-1.19-.98-2.36-1.48-3.54-9.46-9.21-15.95-21.89-17.97-34.5-3.52-21.98,2.55-42.13,16.9-59.11,18.25-21.59,44.09-29.78,70.91-32.29,2.21-.7,4.47-1.27,6.76-1.51,7.54-.79,15.08-1.16,22.62-1.16m37.32,62.9c-.1-.21-.16-.32-.17-.32s.04,.1,.17,.32m-11.58,.61c.33-.34,.47-.52,.46-.52s-.18,.17-.46,.52m-27.93,96.8c2.67-1,5.42-1.46,8.15-1.46,1.6,0,3.2,.16,4.77,.45,2.92-17.77,6.73-35.38,11.95-52.66,3.42-11.35,7.57-22.38,11.69-33.48,.77-2.09,1.36-4.27,2-6.42-.36-.09-.72-.14-1.09-.2h0c-3.71-.02-7.54-.13-11.29-.28-2.73,4.52-5.26,9.18-7.61,13.9-1.38,2.77-2.68,5.57-3.96,8.38-.23,.51-.33,.71-.42,.91-.37,.9-.74,1.81-1.09,2.71-2.1,5.34-4,10.76-5.69,16.25-3.29,10.67-5.78,21.61-7.43,32.66-.07,.8-.49,4.43-.56,5.27-.18,2.4-.29,4.81-.28,7.22,0,1.2,.06,2.39,.11,3.59,0,.12,0,.17,.01,.28,.24,.89,.57,1.93,.74,2.87m42.95-92.55s-.06-.02-.21-.05c.13,.04,.2,.05,.21,.05m.84,.94s.09,0,.13-.03h0s-.56-.3-1.16-.64c.39,.37,.77,.67,1.03,.67m-44.38,91.04s0-1.54-.15-2.25c.07,1.68,.13,2.25,.15,2.25m.27,.72s.07-.04,.11-.05c-.06-.21-.11-.37-.14-.37,0,0-.01,0-.02,.02-.05,.12,.04,.26,.05,.4m121,82.78c-.89-1.46-1.37-2.21-1.39-2.21-.03,0,.36,.7,1.19,2.13,.07,.03,.14,.06,.21,.08m-77.75,104.38c-6.75-23.75-14.05-47.34-22.06-70.69-1.95-5.69-3.89-11.4-5.98-17.05-.34-.93-.7-1.86-1.06-2.79-.06-.12-.08-.16-.14-.3-.9-1.78-1.76-3.54-2.79-5.25-.28-.47-.6-.9-.9-1.36-.15-.15-.39-.41-.62-.67-.23-.06-.47-.13-.78-.23-.11,0-.15-.01-.28-.02h-.02c-1.03,0-2.11,.04-3.18,.06,.09,.43,.19,.97,.32,1.7,3.86,12.03,7.01,24.35,10.58,36.48,3.58,12.17,7.15,24.34,10.72,36.51,1.61,5.49,3.37,10.93,5.07,16.39,.51,1.02,1.03,2.04,1.63,3.02h0c.87,.91,1.79,1.76,2.79,2.52,.43,.36,.71,.81,1.11,1.19,1.87,.05,3.71,.33,5.57,.48M245.63,11.31c-8.37,0-16.67,.43-24.69,1.27-2.74,.29-5.55,.84-8.54,1.68-36.29,3.76-63.2,16.55-82.22,39.04-18.35,21.71-25.73,47.66-21.34,75.05,2.49,15.52,9.95,30.76,20.69,42.46l.02,.06c3.42,8.24,3.55,9.08-1.79,18.37-18.05,31.39-36.9,69.59-39.9,114.92-1.21,18.35,.72,36.76,5.73,54.74,.13,1.99,.36,3.93,.69,5.8,3.21,18.03,11.49,35.51,26.05,55.01,.76,1.06,1.51,1.99,2.12,2.76,2.89,3.76,5.83,7.44,8.76,10.95,18.87,22.62,42.12,35.25,67.25,36.53,1.44,.07,2.9,.11,4.35,.11,19.79,0,36.82-6.93,51.84-13.05,3.75-1.53,7.3-2.97,10.89-4.32,4.96-1.87,9.32-2.78,13.33-2.78,1.82,0,3.6,.19,5.37,.58,14.95,11.83,34.65,18.06,57.32,18.06,20.83,0,44.36-5.44,64.56-14.92,34.83-16.35,57.85-53.94,60.1-98.11,2.12-41.68-16.79-78.57-37.55-112.22-9.04-14.65-20.14-24.77-32.26-29.64,5.75-9.29,10.87-19.49,14.76-31.02,11.15-33.06,12.17-81.14-10.41-114.69-5.1-9.58-11.93-17.86-20.34-24.63-18.37-14.8-39.91-21.29-54.52-24.88-19.13-4.71-39.09-7.09-59.35-7.09-3.33,0-6.71,.06-10.07,.19-3.65-.15-7.31-.23-10.89-.23h0Z"/></g><path class="cls-1" d="M411.82,253.71c-10.89-17.66-28.11-31.76-48.97-18.02-6.56,4.32-10.5,11.09-16.81,15.64-.31,.23-.76,.51-1.26,.82,.06-.14,.11-.32,.17-.46,3.64-8.78,10.44-16.29,16.37-23.52,13.21-16.12,24.37-31.94,31.09-51.86,9.78-28.99,10.12-71.12-8.66-98.12-3.79-7.41-9.11-14.06-15.74-19.4-13.59-10.95-30-16.93-46.81-21.07-21.37-5.26-43.04-7.2-64.72-6.31-11.15-.51-22.31-.26-33.46,.91-2.3,.24-4.55,.8-6.76,1.51-26.82,2.51-52.66,10.7-70.91,32.29-14.35,16.98-20.42,37.12-16.9,59.11,2.02,12.61,8.51,25.29,17.97,34.5,.49,1.18,.98,2.35,1.48,3.54,6.11,14.73,5.05,22.01-2.91,35.87-19.17,33.34-34.73,67.38-37.3,106.34-1.14,17.23,.92,34.16,5.67,50.25,.02,1.83,.17,3.68,.5,5.53,3.09,17.36,12.02,32.71,22.52,46.74,.55,.77,1.14,1.51,1.73,2.25,2.74,3.57,5.54,7.08,8.38,10.48,13.51,16.2,31.43,28.32,53.02,29.42,21.52,1.1,39.59-8.67,59.08-16.01,12.67-4.77,24.07-5.4,35.27-1.5,27,24.45,73.43,17.33,103.87,3.05,31.21-14.65,47.03-48.02,48.72-81.16,1.86-36.54-16.02-70.64-34.62-100.8Zm-169.11-65.07c.23,1.14,.2,4.44,0,0h0Zm.37,2.57c.03-.08,.09,.09,.16,.35-.04,.01-.07,.04-.11,.05-.01-.14-.1-.28-.05-.4Zm28.29-96.55c.57-.71,.66-.68,0,0h0Zm14.84,4.52c.6,.35,1.14,.65,1.16,.64-.26,.13-.7-.21-1.16-.64Zm-.02-.32c.29,.07,.26,.07,0,0h0Zm-3.23-4.81c-.25-.45-.19-.41,0,0h0Zm81.17,180.34c-.07-.03-.14-.06-.21-.08-1.69-2.92-1.55-2.77,.21,.08Z"/></g><g><g><path class="cls-2" d="M1017.85,701.14c2.52-1.76,4.92-3.24,7.09-5.01,11.9-9.74,23-20.69,35.79-29.06,16.79-10.98,33.35-22.8,55.41-22.51,24.03,.31,52.3,22.52,57.92,45.98,5.07,21.16,4.79,41.77-.37,62.09-4.44,17.48-15.25,31.55-30.71,42.01-17.39,11.76-36.34,17.17-57.1,18.61-28.24,1.97-56.42,2.45-83.59-6.11-31.87-10.04-57.44-28.41-73.67-58.93-13.37-25.14-19.05-51.82-16.96-79.58,2.12-28.14,12.65-53.88,30.22-76.36,3.15-4.04,7.02-7.52,10.12-11.6,3.55-4.66,5.61-9.19,2.02-15.58-13.97-24.91-20.93-51.09-14.43-80.03,5.91-26.32,20.65-46.11,42.3-61.1,30.83-21.34,65.71-29.11,102.6-27.67,28.86,1.12,54.49,10.65,72.52,34.73,14.49,15.81,18.56,49.42,19.56,64.94,1.56,24.13-9.24,42.37-30.82,55.06-22.58,13.28-46.29,16.79-70.04,8.07-13.67-5.02-25.53-15.67-37.24-24.99-7.03-5.6-12.09-13.62-18.29-20.32-1.31-1.41-3.77-3.52-5.66-2.63-2.11,.99-2.43,5.05-1.68,6.63,1.9,3.99,4.86,7.51,7.56,11.1,12.33,16.33,29.07,27.39,46.1,37.99,6.71,4.17,14.76,6.45,20.85,11.29,11.41,9.09,13.25,29.33,6.61,44.51-6.62,15.15-19.6,23.32-31.95,32.55-15.25,11.4-30.24,23.17-45.23,34.92-4.71,3.69-2.9,7.25,1.08,11.02Z"/><path class="cls-2" d="M1076.04,396.12c2.8,0,5.62,.06,8.44,.17,28.86,1.12,54.49,10.65,72.52,34.73,14.49,15.81,18.56,49.42,19.56,64.94,1.56,24.13-9.24,42.37-30.82,55.06-14.22,8.36-28.88,12.85-43.72,12.85-8.73,0-17.52-1.55-26.32-4.78-13.67-5.02-25.53-15.67-37.24-24.99-7.03-5.6-12.09-13.62-18.29-20.32-1.09-1.18-2.98-2.84-4.68-2.84-.34,0-.67,.07-.98,.21-2.11,.99-2.43,5.05-1.68,6.63,1.9,3.99,4.86,7.51,7.56,11.1,12.33,16.33,29.07,27.39,46.1,37.99,6.71,4.17,14.76,6.45,20.85,11.29,11.41,9.09,13.24,29.33,6.61,44.51-6.62,15.15-19.6,23.32-31.95,32.55-15.25,11.4-30.24,23.17-45.23,34.92-4.71,3.69-2.9,7.25,1.08,11.02,2.52-1.76,4.92-3.24,7.09-5.01,11.9-9.74,23-20.69,35.79-29.06,16.59-10.85,32.96-22.52,54.63-22.52,.26,0,.52,0,.78,0,24.03,.31,52.3,22.52,57.92,45.98,5.07,21.16,4.79,41.77-.37,62.09-4.44,17.48-15.25,31.55-30.71,42.01-17.39,11.76-36.34,17.17-57.1,18.61-9.89,.69-19.77,1.2-29.61,1.2-18.25,0-36.33-1.74-53.99-7.31-31.87-10.04-57.44-28.41-73.67-58.93-13.37-25.14-19.05-51.82-16.96-79.58,2.12-28.14,12.65-53.88,30.22-76.36,3.15-4.04,7.02-7.52,10.12-11.6,3.55-4.66,5.61-9.19,2.02-15.58-13.97-24.91-20.93-51.09-14.43-80.03,5.91-26.32,20.65-46.11,42.3-61.1,28.47-19.71,60.39-27.84,94.15-27.84m0-19.84c-39.9,0-75.38,10.55-105.45,31.36-26.68,18.47-43.63,43.05-50.36,73.07-6.68,29.76-2.02,59.24,14.26,89.99-.7,.79-1.47,1.62-2.27,2.48-1.85,1.99-3.94,4.25-5.98,6.86-20.42,26.13-31.99,55.43-34.37,87.08-2.38,31.53,4.09,61.94,19.22,90.39,17.67,33.23,46.35,56.29,85.22,68.54,17.81,5.61,36.86,8.22,59.95,8.22,9.08,0,18.64-.38,30.99-1.24,25.78-1.8,47.64-8.98,66.84-21.97,19.92-13.48,33.34-32,38.82-53.56,6-23.64,6.15-47.73,.43-71.59-7.71-32.17-43.67-60.76-76.96-61.2-.35,0-.69,0-1.04,0s-.67,0-1,0c3.02-9.33,3.99-19.48,2.73-29.17-.58-4.44-1.62-8.67-3.07-12.61,14.08-1.8,28.09-6.76,41.79-14.82,28.55-16.79,42.58-42.19,40.56-73.44-1.28-19.86-6.11-55.95-24.03-76.29-20.08-26.36-49.37-40.46-87.08-41.93-3.09-.12-6.19-.18-9.22-.18h0Z"/></g><path class="cls-1" d="M1060.72,667.07c16.79-10.98,33.35-22.8,55.41-22.51,24.03,.31,52.3,22.52,57.92,45.98,5.07,21.16,4.79,41.77-.37,62.09-4.44,17.48-15.25,31.55-30.71,42.01-17.39,11.76-36.34,17.17-57.1,18.61-28.24,1.97-56.42,2.45-83.59-6.11-31.87-10.04-57.44-28.41-73.67-58.93-13.37-25.14-19.05-51.82-16.96-79.58,2.12-28.14,12.65-53.88,30.22-76.36,3.15-4.04,7.02-7.52,10.12-11.6,3.55-4.66,5.61-9.19,2.02-15.58-13.97-24.91-20.93-51.09-14.43-80.03,5.91-26.32,20.65-46.11,42.3-61.1,30.83-21.34,65.71-29.11,102.6-27.67,28.86,1.12,54.49,10.65,72.52,34.73,13.85,14.2,18.56,49.42,19.56,64.94,1.56,24.13-9.24,42.37-30.82,55.06-22.58,13.28-46.29,16.79-70.04,8.07-13.67-5.02-26.24-2.83-9.21,7.77,6.71,4.17,14.76,6.45,20.85,11.29,11.41,9.09,13.25,29.33,6.61,44.51-6.62,15.15-46.02,52.79-33.23,44.42Z"/></g><g><path class="cls-3" d="M957.26,622.87c-6.78-13.13-13.92-26.18-18.72-40.2-5.46-15.92-5.9-31.49-7.84-47.98-3.84-32.61-22.97-70.01-61.12-69.13-37.77,.87-57.88,35.42-62.11,68.91-1.44,11.4,.74,29.02-6.94,38.86-.78-.95-1.39-2.03-1.93-3.38-2.71-6.68-2.21-14.73-2.14-21.82,.29-29.83,8.47-74.21,10.08-80.59,14.73-58.24-27.03-73.99-55.74-71.42-26.66,2.38-44,16.92-53.95,41.27-15.14,37.04-26.02,95.26-34.56,145.29-8.62,50.55-11.22,107.79,4.29,157.37,7.68,24.55,21.72,47.76,44.41,61.01,20.64,12.05,46.58,15.21,68.63,5.32,13.28-5.96,24.87-16.52,29.71-30.55,5.51-15.99,1.42-31.55-5.23-46.42-6.95-15.56-18.4-37.75-4.95-50.65,6.06-14.48,13.17-93.44,22.36,28.24,2.47,32.71,9.5,65.6,38.01,85.88,24.52,17.45,60.03,19.31,85.98,3.85,26.76-15.94,39.83-46.27,41.52-76.37,1.94-34.74-14.25-67.5-29.75-97.49Z"/><path class="cls-1" d="M957.26,620.87c-6.78-13.13-13.92-26.18-18.72-40.2-5.46-15.92-5.9-31.49-7.84-47.98-3.84-32.61-22.97-70.01-61.12-69.13-37.77,.87-54.95,27.55-54.52,68.41,.12,11.48,1.02,40.31-10.93,38.8,0,0-3.6,.55-5.53-2.83-3.58-6.26-2.21-14.73-2.14-21.82,.29-29.83,8.47-74.21,10.08-80.59,14.73-58.24-27.03-73.99-55.74-71.42-26.66,2.38-44,16.92-53.95,41.27-15.14,37.04-26.02,95.26-34.56,145.29-8.62,50.55-11.22,107.79,4.29,157.37,7.68,24.55,21.72,47.76,44.41,61.01,20.64,12.05,46.58,15.21,68.63,5.32,13.28-5.96,24.87-16.52,29.71-30.55,5.51-15.99,5.68-36.43,2.15-52.33-3.89-17.52-4.36-46.73,1.65-47.33,10.98-1.1,11.13,24.66,12.62,30.73,7.52,30.67,5.27,65.7,33.77,85.98,24.52,17.45,60.03,19.31,85.98,3.85,26.76-15.94,39.83-46.27,41.52-76.37,1.94-34.74-14.25-67.5-29.75-97.49Z"/></g><g><g><path class="cls-2" d="M692.99,639.16c-12.25-33.66-25.64-67.95-30.54-103.65-4.24-30.87,7.64-69.32-19.03-92.7-28.62-25.09-71.33-11.52-84.1,22.85-13.02,35.06,4.37,67.92,20.98,97.84,3.12,5.62,6.85,18.92,1.98,25.19-.4,.12-.81,.19-1.21,.3-.37,0-.74,0-1.11,0-.76-.19-1.53-.36-2.27-.61-.54-.29-1.1-.55-1.66-.78-1.81-2.55-3.65-5.06-5.28-7.79-4.73-7.94-9.21-16.15-12.96-24.6-7.39-16.66-12.52-34.94-12.62-53.25-.08-15.59,4.49-30.66,3.31-45.89,7.85-29.46-19.23-57.52-48.42-57.84-33.24-.37-77.68,31.06-105.82,145.06-7.94,32.15-7.05,67.12-7.03,100.2,.02,32.31,4.89,64.02,12.05,95.47,6.49,28.49,21.66,52.8,49.05,64.98,28.13,12.51,69.24,10.5,91.9-12.68,12.29-12.57,15.02-31.39,9.57-47.71-4.77-14.3-11.52-26.7-17.89-40.24-5.94-12.65-13.78-36.41-17.06-50.09-1.18-4.94,2.16-8.77,5.33-4.59,.35,.69,.83,1.31,1.11,2.04,1.86,3.81,3.32,7.86,4.95,11.77,3.28,7.83,6.56,15.67,9.84,23.5,.44,1.06,.89,2.12,1.33,3.19,2.22,8.05,5.14,15.94,8.37,23.9,6.4,15.78,12.84,31.81,21.82,46.34,17.58,28.45,47.42,55.61,83.22,52.35,31.97-2.91,56.8-30.07,63.26-60.59,8.12-38.33-8.22-76.6-21.09-111.95Z"/><path class="cls-2" d="M499.48,398.2c.19,0,.39,0,.58,0,29.19,.32,56.27,28.38,48.42,57.84,1.17,15.23-3.4,30.3-3.31,45.89,.1,18.3,5.23,36.59,12.62,53.25,3.75,8.45,8.22,16.66,12.96,24.6,1.63,2.74,3.47,5.25,5.28,7.79,.56,.23,1.11,.5,1.66,.78,.74,.25,1.51,.41,2.27,.61,.24,0,.47,0,.71,0,.13,0,.27,0,.4,0,.4-.11,.81-.17,1.21-.3,4.87-6.27,1.14-19.57-1.98-25.19-16.6-29.92-34-62.78-20.98-97.84,8.25-22.22,29.03-35.75,50.42-35.75,11.69,0,23.56,4.04,33.68,12.91,26.66,23.38,14.79,61.83,19.03,92.7,4.9,35.7,18.28,69.99,30.54,103.65,12.87,35.35,29.21,73.63,21.09,111.95-6.47,30.53-31.29,57.68-63.26,60.59-1.97,.18-3.92,.27-5.86,.27-33.19,0-60.76-25.73-77.37-52.61-8.98-14.53-15.42-30.56-21.82-46.34-3.23-7.96-6.15-15.85-8.37-23.9-.45-1.06-.89-2.12-1.33-3.19-3.28-7.83-6.56-15.67-9.84-23.5-1.64-3.91-3.09-7.96-4.95-11.77-.28-.73-.76-1.35-1.11-2.04-.95-1.25-1.92-1.79-2.77-1.79-2,0-3.39,2.92-2.56,6.38,3.27,13.68,11.11,37.43,17.06,50.09,6.36,13.54,13.11,25.94,17.89,40.24,5.45,16.32,2.72,35.14-9.57,47.71-13.71,14.02-34.17,20.3-54.42,20.3-13.22,0-26.36-2.68-37.47-7.62-27.39-12.18-42.56-36.49-49.05-64.98-7.16-31.45-12.03-63.16-12.05-95.47-.02-33.07-.9-68.04,7.03-100.2,27.98-113.34,72.06-145.07,105.24-145.06m0-19.84h0c-31.73,0-90.11,20.8-124.5,160.15-7.81,31.66-7.72,64.43-7.63,96.13,0,2.96,.02,5.9,.02,8.83,.02,30.62,4,62.36,12.54,99.86,8.6,37.76,29.46,64.97,60.33,78.7,13.72,6.1,29.47,9.33,45.54,9.33,27.68,0,52.05-9.33,68.61-26.27,4.43-4.53,8.08-9.66,10.9-15.2,7.08,8.35,14.8,15.69,22.89,21.74,17.92,13.38,37.02,20.17,56.77,20.17,2.54,0,5.12-.12,7.66-.35,38.86-3.54,72.11-34.89,80.87-76.24,8.59-40.53-5.75-79.26-18.39-113.44-1.17-3.16-2.33-6.3-3.46-9.41-1.12-3.09-2.26-6.18-3.39-9.28-10.8-29.48-21.97-59.96-26.13-90.28-1.04-7.6-.91-16.37-.77-25.67,.39-25.27,.87-56.71-24.84-79.25-13.3-11.66-29.47-17.83-46.75-17.83-16.03,0-31.3,5.41-43.75,14.78-2.24-6.24-5.49-12.25-9.71-17.8-13.46-17.71-34.39-28.43-56.01-28.67h-.8Z"/></g><path class="cls-1" d="M692.99,639.16c-12.25-33.66-25.64-67.95-30.54-103.65-4.24-30.87,7.64-69.32-19.03-92.7-28.62-25.09-71.33-11.52-84.1,22.85-13.02,35.06,4.37,67.92,20.98,97.84,3.12,5.62,6.85,18.92,1.98,25.19-.4,.12-.81,.19-1.21,.3-.37,0-.74,0-1.11,0-.76-.19-1.53-.36-2.27-.61-.54-.29-1.1-.55-1.66-.78-1.81-2.55-3.65-5.06-5.28-7.79-4.73-7.94-9.21-16.15-12.96-24.6-7.39-16.66-12.52-34.94-12.62-53.25-.08-15.59,4.49-30.66,3.31-45.89,7.85-29.46-19.23-57.52-48.42-57.84-33.24-.37-77.68,31.06-105.82,145.06-7.94,32.15-7.05,67.12-7.03,100.2,.02,32.31,4.89,64.02,12.05,95.47,6.49,28.49,21.66,52.8,49.05,64.98,28.13,12.51,69.24,10.5,91.9-12.68,12.29-12.57,15.02-31.39,9.57-47.71-4.77-14.3-11.52-26.7-17.89-40.24-5.94-12.65-13.78-36.41-17.06-50.09-1.18-4.94,2.16-8.77,5.33-4.59,.35,.69,.83,1.31,1.11,2.04,1.86,3.81,3.32,7.86,4.95,11.77,3.28,7.83,6.56,15.67,9.84,23.5,.44,1.06,.89,2.12,1.33,3.19,2.22,8.05,5.14,15.94,8.37,23.9,6.4,15.78,12.84,31.81,21.82,46.34,17.58,28.45,47.42,55.61,83.22,52.35,31.97-2.91,56.8-30.07,63.26-60.59,8.12-38.33-8.22-76.6-21.09-111.95Z"/></g><g><g><path class="cls-2" d="M413.21,623.9c-16.6-30.1-24.51-64.21-27.84-97.64-.45-6.73-.81-13.48-.95-20.29-.07-3.53-.65-6.72-1.45-9.72-1.07-33.75-16.29-65.34-47.57-81.45-17.4-8.96-45.19-15.48-69.04-13.86-95.08,6.44-139.91,96.73-154.38,180.04-14.15,81.43,3.93,174.06,82.63,219.31,30.43,17.49,110.08,23.71,137.48,19.16,22.95-3.81,48.15-9.25,67.93-22.08,17.75-11.51,34.29-31.31,39.57-58.25,8.19-41.83-6.2-78.63-26.38-115.21Zm-139.18-135.7c0,.22-.03,.44-.03,.66-.6,2.59-1.23,5.17-2.2,7.67-2.81,6.21-5.54,12.48-6.94,19.15-1.51,7.18-2.56,14.63-2.43,22.02-.72,2.7-1.64,5.31-2.22,8.08-5.67,27.04-7.37,55.03-7.05,82.61,.33,28.99,4.57,59.36,15.43,86.59-2.55,3.45-4.71,7.28-6.21,11.49-.52,1.46-1.04,2.92-1.57,4.39-2.39-1.91-4.76-4.09-7.38-6.95-15.09-16.45-21.34-45.45-25.15-68.82-9.33-57.17,2.74-111.03,20.72-164.82,.55-.95,1.04-1.95,1.55-2.93,5.88-3.29,12.03-6.15,18.42-8.06,.44-.13,1.05-.32,1.68-.51,.66,3.26,1.89,6.4,3.39,9.44Z"/><path class="cls-2" d="M273.84,400.69c21.99,0,45.95,6.07,61.56,14.11,31.28,16.12,46.5,47.7,47.57,81.45,.8,3.01,1.38,6.19,1.45,9.72,.14,6.81,.5,13.56,.95,20.29,3.33,33.43,11.24,67.54,27.84,97.64,20.17,36.58,34.57,73.38,26.38,115.21-5.28,26.94-21.81,46.74-39.57,58.25-19.78,12.83-44.98,18.27-67.93,22.08-5.77,.96-13.84,1.44-23.28,1.44-35.45,0-90.18-6.78-114.2-20.59-78.7-45.25-96.77-137.88-82.63-219.31,14.47-83.31,59.3-173.6,154.38-180.04,2.46-.17,4.96-.25,7.48-.25m-13.04,330.16c.52-1.46,1.05-2.92,1.57-4.39,1.51-4.21,3.66-8.04,6.21-11.49-10.86-27.23-15.09-57.61-15.43-86.59-.32-27.58,1.38-55.56,7.05-82.61,.58-2.77,1.5-5.38,2.22-8.08-.13-7.39,.91-14.83,2.43-22.01,1.41-6.67,4.13-12.94,6.94-19.15,.97-2.5,1.6-5.08,2.2-7.67,0-.22,.03-.44,.03-.66-1.5-3.04-2.73-6.18-3.39-9.44-.62,.19-1.24,.38-1.68,.51-6.39,1.9-12.54,4.76-18.42,8.06-.5,.98-1,1.98-1.55,2.93-17.98,53.79-30.05,107.65-20.72,164.82,3.81,23.37,10.06,52.38,25.15,68.82,2.62,2.86,4.99,5.04,7.38,6.95m13.04-350c-3,0-5.97,.1-8.82,.29-48.92,3.31-91.12,27.25-122.05,69.22-30.75,41.73-44.46,92.22-50.53,127.22-8.17,47.01-5.69,92.9,7.16,132.72,15.11,46.79,44.54,83.86,85.12,107.19,29.65,17.05,90.45,23.24,124.09,23.24,10.79,0,19.71-.57,26.53-1.71,24.54-4.07,52.7-10.23,75.48-25,24.98-16.2,42.56-42.11,48.24-71.08,9.8-50.05-8.89-93.1-28.47-128.6-13.51-24.5-21.83-53.85-25.44-89.71-.49-7.36-.77-13.42-.89-19.05-.08-3.99-.59-7.98-1.54-12.12-2.02-43.2-23.16-78.22-58.23-96.28-19.54-10.06-46.6-16.31-70.64-16.31h0Z"/></g><path class="cls-1" d="M413.21,623.9c-16.6-30.1-24.51-64.21-27.84-97.64-.45-6.73-.81-13.48-.95-20.29-.07-3.53-.65-6.72-1.45-9.72-1.07-33.75-16.29-65.34-47.57-81.45-17.4-8.96-45.19-15.48-69.04-13.86-95.08,6.44-139.91,96.73-154.38,180.04-14.15,81.43,1.81,177.97,82.63,219.31,2.81,1.44,64.63,31.26,137.48,19.16,22.95-3.81,48.15-9.25,67.93-22.08,17.75-11.51,34.29-31.31,39.57-58.25,8.19-41.83-6.2-78.63-26.38-115.21Z"/></g><path class="cls-2" d="M862.97,851.6c28,6.07,58.25,11.72,84.84-2.45,7.05-3.75,.79-14.46-6.26-10.71-23.34,12.44-50.85,6.5-75.29,1.2-7.78-1.69-11.1,10.26-3.3,11.96h0Z"/><path class="cls-2" d="M965.29,840.64c3.92,0,7.68-3.45,7.5-7.5s-3.3-7.5-7.5-7.5c-3.92,0-7.68,3.45-7.5,7.5s3.3,7.5,7.5,7.5h0Z"/><path class="cls-2" d="M1230,299.33c.82,2.48,1.44,5.01,1.96,7.57,.29,1.44,.55,2.88,.78,4.33,.12,.78,.24,1.55,.35,2.33-.16-1.11,.18,1.44,.21,1.72,.92,7.92,1.26,15.9,1.18,23.87-.16,17.91-2.37,35.95-7.85,53.04-3.01,9.37-7.15,18.31-12.92,26.31-1.96,2.72-.47,6.91,2.22,8.48,3.13,1.83,6.52,.5,8.48-2.22,11.09-15.39,16.76-34.41,19.71-52.95,2.85-17.9,3.65-36.25,1.82-54.3-.73-7.21-1.69-14.58-3.98-21.49-2.5-7.54-14.48-4.31-11.96,3.3h0Z"/><path class="cls-2" d="M1203.54,450.66c3.92,0,7.68-3.45,7.5-7.5s-3.3-7.5-7.5-7.5c-3.92,0-7.68,3.45-7.5,7.5s3.3,7.5,7.5,7.5h0Z"/><path class="cls-2" d="M413.37,707.83c1.03,15.71-1.67,31.8-10.11,45.31-7.33,11.74-18.8,20.72-32.31,24.08-5.8,1.45-3.35,10.42,2.47,8.97,15.52-3.87,28.74-14.21,37.36-27.56,9.63-14.92,13.04-33.26,11.88-50.8-.39-5.94-9.69-5.99-9.3,0h0Z"/><path class="cls-2" d="M453.89,458.9c12.25-16.52,29.34-38.73,52.85-35.25,2.48,.37,5-.62,5.72-3.25,.6-2.19-.75-5.35-3.25-5.72-13.01-1.93-25.83,2.17-36.33,9.9-10.91,8.03-19.02,18.84-27.02,29.62-1.5,2.02-.33,5.19,1.67,6.36,2.37,1.38,4.86,.36,6.36-1.67h0Z"/><path class="cls-2" d="M872.21,429.04c20.4-8.47,36.42-24.88,44.24-45.56,.89-2.35-.99-5.1-3.25-5.72-2.61-.72-4.83,.89-5.72,3.25-6.54,17.31-20.62,31.96-37.74,39.07-2.32,.96-3.97,3.08-3.25,5.72,.6,2.19,3.39,4.22,5.72,3.25h0Z"/><path class="cls-2" d="M1118.05,117.61c2.25,20.1-3.09,42.68-22.46,52.58-5.33,2.73-.63,10.75,4.69,8.03,22.11-11.3,29.66-37.39,27.07-60.61-.28-2.5-1.94-4.65-4.65-4.65-2.3,0-4.93,2.14-4.65,4.65h0Z"/><path class="cls-2" d="M710.39,467.47c3.11-20.49,15.19-39.66,32.48-51.16,2.09-1.39,3.31-3.79,2.08-6.24-1.01-2.03-4.13-3.48-6.24-2.08-20.26,13.48-33.95,34.78-37.61,58.87-.9,5.93,8.39,6.49,9.28,.61h0Z"/><path class="cls-2" d="M913.64,792.01c24.15-4.78,45.58-21.49,56.05-43.78,1.07-2.27,.63-5.02-1.67-6.36-2.02-1.18-5.29-.61-6.36,1.67-9.56,20.34-28.44,35.14-50.49,39.51-5.87,1.16-3.38,10.13,2.47,8.97h0Z"/><path class="cls-2" d="M1077.85,541.65c23.9,7.12,52.66,4.31,69.12-16.4,1.57-1.98,1.9-4.64,0-6.58-1.6-1.64-5.02-1.96-6.58,0-14.51,18.26-39.02,20.28-60.07,14.01-5.75-1.71-8.2,7.26-2.47,8.97h0Z"/><path class="cls-2" d="M1098.34,801.75c21.74-4.71,41.68-17.14,55.35-34.7,1.54-1.98,1.93-4.65,0-6.58-1.61-1.61-5.02-1.99-6.58,0-12.81,16.44-30.87,27.89-51.25,32.31-5.85,1.27-3.37,10.23,2.47,8.97h0Z"/><path class="cls-2" d="M167.31,496c10.65-23.21,28.5-42.44,50.94-54.65,5.26-2.86,.57-10.89-4.69-8.03-23.69,12.89-43.02,33.47-54.28,57.99-1.05,2.28-.65,5.01,1.67,6.36,2,1.17,5.31,.63,6.36-1.67h0Z"/><path class="cls-2" d="M395.44,417.53c18.17-9.6,30.36-27.93,33-48.18,.33-2.49-2.37-4.65-4.65-4.65-2.78,0-4.32,2.15-4.65,4.65-2.21,16.98-13.37,32.22-28.39,40.15-5.29,2.8-.6,10.83,4.69,8.03h0Z"/><path class="cls-2" d="M684.5,687.24c9.2,23.36,9.51,49.23,.8,72.78-2.08,5.62,6.91,8.05,8.97,2.47,9.2-24.9,8.93-53.03-.8-77.73-.92-2.33-3.12-3.98-5.72-3.25-2.22,.62-4.18,3.36-3.25,5.72h0Z"/><path class="cls-2" d="M335.64,263.31c17.54-10.01,30.59-25.64,44.51-39.91,4.18-4.29-2.39-10.87-6.58-6.58-13.34,13.69-25.8,28.86-42.62,38.46-5.2,2.96-.52,11,4.69,8.03h0Z"/><path class="cls-2" d="M281.93,88.25c-10.71,37.63-18.66,75.63-34.34,111.64,.47-33.04,13.37-85.85,34.34-111.64h0Z"/><path class="cls-2" d="M253.19,264.57c-1.18,10.41,1.66,20.28,4,30.25,7.8,30.1,18.43,59.26,24.74,89.87-16.71-26.01-28.54-57.78-32.45-88.49-.67-6.63-.97-13.46-.02-20.13,.53-3.97,1.65-8.09,3.73-11.5h0Z"/><path class="cls-2" d="M271.76,490.66c-1.53,3.31-3.31,7.02-4.93,10.31-6.47,14.85-11.84,30.52-14.89,46.4l-.78,3.65c-.53,3.6-1.28,7.47-1.75,11.04-.91,7.07-1.73,15.16-2,22.26-2.08,47.68,7.73,95.14,22.53,140.32-5.26-8.77-9.51-18.1-13.38-27.56-26.19-65.67-30.25-148.19,15.2-206.41h0Z"/><path class="cls-2" d="M1068.8,299.61c5.99,29.08-4.26,64.74-20.55,89.09-1.17,1.72-2.43,3.4-3.78,5,3.89-15.98,8.62-31.24,12.86-46.96,4.44-15.7,7.75-31.08,11.48-47.13h0Z"/><path class="cls-2" d="M1027.36,89.21c-11.5,23.94-28.8,52.67-17.71,79.42,3.51,8.3,9.75,15.7,17.71,21.61-9.9-2.52-18.72-9.56-23.99-18.35-16.35-28,2.59-63.07,23.99-82.67h0Z"/><path class="cls-2" d="M991.56,207.3c-12.17,25.96-26.25,54.39,2.04,75.13,7.75,5.77,16.67,9.98,25.82,13.54-16.06-.04-33.33-6.29-43.53-19.29-1.63-2.17-3.26-4.68-4.31-7.18-1.01-2.14-1.81-4.69-2.39-6.98-.41-2.35-.87-4.89-.87-7.26-.11-1.21-.03-2.91,.08-4.13,.12-1.36,.12-2.75,.43-4.06,2.56-15.4,11.71-29.04,22.73-39.76h0Z"/><path class="cls-2" d="M1109.42,573.96c-34.7,.7-77.62-18.46-91.73-51.85-.52-1.04-.91-2.51-1.32-3.6-.9-2.37-1.36-4.92-1.87-7.37,2.9,4.16,5.72,8.13,8.88,11.79,22.48,25.9,54.82,38.53,86.04,51.03h0Z"/><path class="cls-2" d="M1109.42,616.95c0,9.39-9.7,20.16-15.74,26.84-14.33,15-30.98,27.31-48.6,38.04-8.83,5.26-17.89,10.17-27.59,14,22-21.38,46.97-38.86,70.88-57.8,3.94-3.11,7.83-6.28,11.54-9.62,3.62-3.4,7.54-6.78,9.51-11.46h0Z"/><path class="cls-1" d="M139.62,246.64c-.64-7.47-3.21-14.65-8.72-19.95-4.73-4.55-11.02-7.51-17.43-8.77-7.64-1.51-16.2-1.82-23.73,.41-6.18,1.84-10.71,5.46-14.62,9.94-3.77,3.94-6.33,12.95-6.15,13.66-3.75,13.91,2.91,28.46,14.13,36.89,5.29,3.98,11.73,6.65,18.25,7.81,7.67,1.37,15.95,1.8,23.13-1.74,7.08-3.49,10.27-10.61,12.33-17.81,1.87-6.53,3.4-13.62,2.82-20.45Z"/><ellipse class="cls-1" cx="493.71" cy="831.81" rx="51.79" ry="37.53"/><ellipse class="cls-1" cx="109.58" cy="577.97" rx="62.53" ry="38.22" transform="translate(-478.51 592.06) rotate(-80.64)"/><ellipse class="cls-1" cx="1190.59" cy="517.32" rx="46.16" ry="26.76" transform="translate(423.11 1564.27) rotate(-77.24)"/></svg>