<?xml version="1.0" encoding="UTF-8"?><svg id="Calque_1" xmlns="http://www.w3.org/2000/svg" viewBox="0 0 284.99 99.39"><defs><style>.cls-1{fill:#e9e9e9;}</style></defs><g><path class="cls-1" d="M27.16,96.07c-6.53,0-11.99-1.72-16.37-5.15-4.38-3.43-6.57-8.12-6.57-14.08,0-3.8,1.01-7.07,3.04-9.8,2.03-2.73,5.17-4.98,9.43-6.76,4.26-1.78,8.91-3.16,13.95-4.16,5.04-.99,11.29-1.9,18.73-2.73v-1.61c0-10.83-5.04-16.25-15.13-16.25-4.63,0-8.27,1.16-10.92,3.47-2.65,2.32-4.09,5.58-4.34,9.8H7.32c.5-6.86,3.37-12.32,8.62-16.37,5.25-4.05,11.31-6.08,18.17-6.08,9.18,0,15.92,2.23,20.22,6.7,4.3,4.47,6.41,11.41,6.33,20.84l-.12,15.38c-.08,10.83,.5,19.23,1.74,25.18h-11.41c-.5-3.22-.79-6.28-.87-9.18-4.22,7.19-11.83,10.79-22.82,10.79Zm23.07-29.52v-4.22c-11.33,1.08-19.74,2.65-25.24,4.71-5.5,2.07-8.25,5.25-8.25,9.55,0,3.22,1.16,5.79,3.47,7.69,2.31,1.9,5.46,2.85,9.43,2.85,5.95,0,10.87-1.61,14.76-4.84,3.89-3.22,5.83-8.48,5.83-15.75Z"/><path class="cls-1" d="M27.16,96.9c-6.69,0-12.37-1.79-16.88-5.32-4.57-3.58-6.89-8.53-6.89-14.73,0-3.97,1.08-7.43,3.2-10.29,2.1-2.84,5.39-5.2,9.77-7.03,4.29-1.79,9.04-3.21,14.11-4.2,4.87-.96,10.94-1.85,18.06-2.66v-.87c0-10.38-4.68-15.42-14.31-15.42-4.4,0-7.89,1.1-10.37,3.27-2.46,2.15-3.83,5.26-4.06,9.23l-.05,.78H6.43l.06-.88c.51-7.08,3.52-12.78,8.94-16.97,5.38-4.15,11.66-6.25,18.68-6.25,9.37,0,16.37,2.34,20.81,6.95,4.43,4.61,6.64,11.81,6.56,21.42l-.12,15.38c-.08,10.72,.5,19.13,1.72,25l.21,.99h-13.13l-.11-.7c-.36-2.33-.61-4.6-.76-6.76-4.56,6.03-11.99,9.08-22.12,9.08Zm7.07-62.18c5.26,0,9.28,1.46,11.95,4.32,2.66,2.85,4,7.14,4,12.75v2.35l-.73,.08c-7.4,.82-13.67,1.74-18.66,2.72-4.96,.98-9.61,2.36-13.8,4.11-4.1,1.71-7.16,3.9-9.08,6.49-1.91,2.57-2.88,5.7-2.88,9.31,0,5.74,2.05,10.13,6.26,13.43,4.21,3.3,9.55,4.97,15.86,4.97,5.35,0,9.93-.88,13.6-2.62,3.63-1.72,6.5-4.33,8.51-7.76l1.46-2.48,.08,2.88c.07,2.63,.33,5.44,.75,8.38h9.7c-1.11-5.92-1.64-14.11-1.56-24.36l.12-15.38c.08-9.16-1.97-15.98-6.1-20.26-4.12-4.28-10.72-6.44-19.62-6.44-6.64,0-12.59,1.99-17.67,5.91-4.8,3.71-7.57,8.72-8.22,14.89h9.99c.39-4.06,1.92-7.29,4.56-9.59,2.79-2.44,6.64-3.68,11.46-3.68Zm-4.59,53.25c-4.15,0-7.5-1.02-9.95-3.04-2.5-2.06-3.77-4.86-3.77-8.33,0-4.66,2.95-8.13,8.78-10.32,5.54-2.08,14.11-3.69,25.45-4.76l.9-.09v5.12c0,7.5-2.06,13.01-6.13,16.39-4.02,3.34-9.17,5.03-15.29,5.03Zm19.76-24.72c-10.75,1.06-18.87,2.6-24.13,4.58-5.19,1.95-7.71,4.82-7.71,8.78,0,2.99,1.04,5.3,3.17,7.05,2.15,1.77,5.15,2.67,8.9,2.67,5.73,0,10.52-1.56,14.23-4.65,3.67-3.05,5.53-8.13,5.53-15.12v-3.31Z"/></g><g><g><path class="cls-1" d="M86.81,4.54V94.46h-11.29V4.54h11.29Z"/><path class="cls-1" d="M87.63,95.29h-12.94V3.71h12.94V95.29Zm-11.29-1.65h9.64V5.36h-9.64V93.64Z"/></g><g><path class="cls-1" d="M104.67,4.54h11.29v13.64h-11.29V4.54Zm0,23.19h11.29V94.46h-11.29V27.73Z"/><path class="cls-1" d="M116.78,95.29h-12.94V26.91h12.94V95.29Zm-11.29-1.65h9.64V28.56h-9.64V93.64Zm11.29-74.63h-12.94V3.71h12.94v15.29Zm-11.29-1.65h9.64V5.36h-9.64v11.99Z"/></g></g><g><g><path class="cls-1" d="M156.43,25.57c7.69,0,14.04,2.36,19.04,7.07,5,4.71,7.96,10.17,8.87,16.37h-11.41c-.83-3.97-2.81-7.21-5.95-9.74-3.14-2.52-6.91-3.78-11.29-3.78-5.38,0-9.92,2.11-13.64,6.33s-5.58,10.29-5.58,18.23,1.86,14.2,5.58,18.54c3.72,4.34,8.27,6.51,13.64,6.51,4.55,0,8.43-1.3,11.66-3.91,3.22-2.6,5.25-5.77,6.08-9.49h11.66c-1.24,6.45-4.61,11.95-10.11,16.5-5.5,4.55-12.05,6.82-19.66,6.82-9.51,0-17.08-3.22-22.7-9.67-5.62-6.45-8.43-14.84-8.43-25.18s2.93-18.38,8.81-24.87c5.87-6.49,13.68-9.74,23.44-9.74Z"/><path class="cls-1" d="M155.32,95.86c-9.71,0-17.56-3.35-23.32-9.96-5.73-6.57-8.64-15.23-8.64-25.72s3.03-18.81,9.02-25.42c6.01-6.64,14.1-10.01,24.05-10.01,7.87,0,14.47,2.45,19.6,7.29,5.12,4.82,8.18,10.49,9.12,16.85l.14,.94h-13.04l-.14-.66c-.78-3.76-2.69-6.87-5.66-9.26-2.98-2.39-6.6-3.6-10.77-3.6-5.1,0-9.49,2.03-13.03,6.05-3.57,4.04-5.38,9.99-5.38,17.69s1.81,13.84,5.38,18.01c3.59,4.19,7.85,6.22,13.02,6.22,4.33,0,8.08-1.25,11.14-3.72,3.06-2.47,5.01-5.51,5.79-9.03l.14-.65h13.32l-.19,.98c-1.27,6.61-4.77,12.33-10.39,16.98-5.63,4.65-12.42,7.01-20.19,7.01Zm1.12-69.46c-9.47,0-17.15,3.18-22.83,9.47-5.7,6.3-8.59,14.49-8.59,24.32s2.77,18.37,8.23,24.64c5.43,6.23,12.86,9.39,22.08,9.39,7.37,0,13.81-2.23,19.13-6.63,5.04-4.17,8.27-9.22,9.62-15.04h-9.99c-.95,3.62-3.04,6.74-6.21,9.31-3.36,2.71-7.46,4.09-12.18,4.09-5.6,0-10.4-2.29-14.27-6.8-3.84-4.47-5.78-10.89-5.78-19.08s1.95-14.43,5.79-18.78c3.87-4.38,8.67-6.6,14.26-6.6,4.55,0,8.52,1.33,11.8,3.96,3.11,2.49,5.15,5.71,6.1,9.56h9.78c-1.04-5.6-3.88-10.63-8.46-14.95-4.82-4.54-11.04-6.85-18.47-6.85Z"/></g><g><path class="cls-1" d="M257.39,63.78h-51.35c.16,6.78,2.29,12.03,6.39,15.75,4.09,3.72,8.83,5.58,14.2,5.58,8.93,0,15.01-3.68,18.23-11.04h11.66c-1.57,6.04-5,11.04-10.29,15.01-5.29,3.97-11.83,5.95-19.6,5.95-10.25,0-18.28-3.27-24.06-9.8-5.79-6.53-8.68-14.88-8.68-25.06s3.06-18.79,9.18-25.12c6.12-6.33,13.85-9.49,23.19-9.49,10,0,17.86,3.66,23.57,10.98,5.71,7.32,8.23,16.39,7.57,27.23Zm-31.13-28.53c-5.38,0-9.94,1.57-13.71,4.71-3.76,3.14-5.89,7.86-6.39,14.14h39.32c-.17-5.04-1.98-9.45-5.46-13.21-3.47-3.76-8.06-5.64-13.77-5.64Z"/><path class="cls-1" d="M226.63,95.86c-10.45,0-18.76-3.39-24.68-10.08-5.9-6.66-8.89-15.27-8.89-25.6s3.17-19.24,9.41-25.69c6.25-6.46,14.25-9.74,23.79-9.74,10.23,0,18.37,3.8,24.22,11.29,5.81,7.45,8.41,16.79,7.74,27.78l-.05,.77h-51.27c.31,6.11,2.36,10.93,6.09,14.32,3.92,3.56,8.51,5.37,13.65,5.37,4.29,0,7.94-.89,10.83-2.64,2.88-1.74,5.11-4.4,6.65-7.91l.22-.49h13.27l-.27,1.03c-1.61,6.19-5.18,11.39-10.6,15.46-5.41,4.06-12.17,6.12-20.09,6.12Zm-.37-69.46c-9.07,0-16.67,3.11-22.6,9.24-5.94,6.14-8.95,14.39-8.95,24.54s2.85,18.16,8.47,24.51c5.6,6.32,13.48,9.52,23.45,9.52,7.55,0,13.98-1.95,19.1-5.79,4.81-3.61,8.07-8.15,9.7-13.52h-10.04c-3.41,7.33-9.72,11.04-18.77,11.04-5.56,0-10.53-1.95-14.76-5.8-4.25-3.86-6.49-9.36-6.66-16.34l-.02-.85h51.41c.48-10.24-2.02-18.95-7.44-25.89-2.76-3.54-6.08-6.23-9.87-7.99-3.8-1.77-8.19-2.67-13.05-2.67Zm20.08,28.53h-41.06l.07-.89c.51-6.48,2.76-11.43,6.68-14.71,3.9-3.25,8.69-4.91,14.23-4.91,5.92,0,10.75,1.99,14.37,5.91,3.59,3.89,5.5,8.52,5.68,13.74l.03,.85Zm-39.27-1.65h37.54c-.33-4.47-2.07-8.44-5.19-11.83-3.29-3.57-7.72-5.38-13.16-5.38-5.15,0-9.58,1.52-13.18,4.52-3.39,2.83-5.41,7.1-6.01,12.68Z"/></g></g><circle class="cls-1" cx="274.43" cy="88.6" r="8.43"/></svg>