<?xml version="1.0" encoding="UTF-8"?><svg id="Calque_1" xmlns="http://www.w3.org/2000/svg" viewBox="0 0 113.39 113.39"><defs><style>.cls-1{fill:#e9e9e9;}.cls-2{fill:#222;}</style></defs><circle class="cls-2" cx="56.69" cy="56.69" r="56.69"/><g><path class="cls-1" d="M49.4,88.01c-6.35,0-11.65-1.67-15.91-5-4.26-3.33-6.39-7.89-6.39-13.68,0-3.69,.98-6.87,2.95-9.52,1.97-2.65,5.02-4.84,9.16-6.57,4.14-1.73,8.66-3.07,13.56-4.04,4.9-.96,10.97-1.85,18.19-2.65v-1.57c0-10.52-4.9-15.78-14.7-15.78-4.5,0-8.03,1.13-10.6,3.37-2.57,2.25-3.98,5.42-4.22,9.52h-11.33c.48-6.67,3.27-11.97,8.37-15.91,5.1-3.93,10.98-5.9,17.65-5.9,8.92,0,15.46,2.17,19.64,6.51,4.18,4.34,6.22,11.09,6.15,20.24l-.12,14.94c-.08,10.52,.48,18.68,1.69,24.46h-11.09c-.48-3.13-.76-6.1-.84-8.92-4.1,6.99-11.49,10.48-22.17,10.48Zm22.41-28.68v-4.1c-11.01,1.04-19.18,2.57-24.52,4.58-5.34,2.01-8.01,5.1-8.01,9.28,0,3.13,1.12,5.62,3.37,7.47,2.25,1.85,5.3,2.77,9.16,2.77,5.78,0,10.56-1.57,14.34-4.7,3.77-3.13,5.66-8.23,5.66-15.3Z"/><path class="cls-1" d="M49.4,88.81c-6.5,0-12.02-1.74-16.4-5.17-4.44-3.48-6.69-8.29-6.69-14.31,0-3.86,1.05-7.22,3.11-10,2.04-2.75,5.24-5.05,9.49-6.83,4.17-1.74,8.78-3.11,13.71-4.08,4.73-.93,10.63-1.8,17.55-2.58v-.85c0-10.08-4.55-14.98-13.9-14.98-4.28,0-7.67,1.07-10.08,3.18-2.39,2.09-3.72,5.11-3.95,8.96l-.04,.75h-12.94l.06-.86c.5-6.87,3.42-12.42,8.68-16.48,5.22-4.03,11.33-6.07,18.14-6.07,9.1,0,15.9,2.27,20.22,6.75,4.31,4.47,6.45,11.47,6.37,20.81l-.12,14.94c-.08,10.41,.48,18.59,1.67,24.29l.2,.96h-12.76l-.1-.68c-.35-2.27-.59-4.47-.74-6.57-4.43,5.85-11.64,8.82-21.49,8.82Zm6.87-60.4c5.11,0,9.02,1.41,11.61,4.2,2.58,2.77,3.89,6.94,3.89,12.38v2.28l-.71,.08c-7.19,.8-13.28,1.69-18.13,2.64-4.82,.95-9.33,2.29-13.4,3.99-3.98,1.66-6.95,3.79-8.82,6.31-1.85,2.5-2.79,5.54-2.79,9.04,0,5.58,1.99,9.84,6.08,13.05,4.09,3.21,9.28,4.83,15.41,4.83,5.2,0,9.64-.86,13.21-2.54,3.53-1.67,6.31-4.21,8.27-7.54l1.41-2.41,.08,2.8c.07,2.55,.32,5.29,.73,8.14h9.42c-1.08-5.75-1.59-13.71-1.51-23.67l.12-14.94c.08-8.9-1.92-15.52-5.92-19.68-4-4.15-10.41-6.26-19.06-6.26-6.45,0-12.23,1.93-17.16,5.74-4.67,3.6-7.35,8.47-7.99,14.47h9.71c.38-3.94,1.87-7.08,4.43-9.32,2.71-2.37,6.45-3.57,11.13-3.57Zm-4.46,51.73c-4.03,0-7.28-.99-9.67-2.95-2.43-2-3.67-4.72-3.67-8.09,0-4.53,2.87-7.9,8.53-10.03,5.39-2.02,13.7-3.58,24.73-4.63l.88-.08v4.98c0,7.29-2,12.64-5.95,15.92-3.91,3.24-8.9,4.88-14.85,4.88Zm19.2-24.02c-10.45,1.03-18.33,2.53-23.44,4.45-5.04,1.9-7.49,4.69-7.49,8.53,0,2.91,1.01,5.15,3.08,6.85,2.09,1.72,5,2.59,8.65,2.59,5.56,0,10.22-1.52,13.83-4.51,3.57-2.96,5.37-7.9,5.37-14.69v-3.21Z"/></g></svg>